<svg id="Capa_1" data-name="Capa 1" xmlns="http://www.w3.org/2000/svg" viewBox="0 0 595.28 595.28"><path d="M396.75,351H371.44V276.82H290.49c-.06.93-.17,1.85-.17,2.77,0,15.14,0,30.27-.06,45.41,0,2.43.67,3.08,3.1,3.06,14.17-.11,28.34-.06,42.51-.06h3.2v22.44H264.89V276.82H222.78V351H197.32V236.27H396.75Z"/><path d="M250.57,461.79h-8.43c0-2.76,0-5.42,0-8.09,0-3.58,0-7.18-.24-10.74-.29-4-2.07-5.77-5.36-5.76a6.19,6.19,0,0,0-6.37,6c-.24,4.79-.14,9.61-.18,14.42,0,1.29,0,2.59,0,4.07h-8.74c0-4.75,0-9.44,0-14.13,0-1.83-.07-3.67-.26-5.49-.25-2.41-1.09-4.46-3.89-4.84a6.1,6.1,0,0,0-6.5,3.41,11.46,11.46,0,0,0-.88,4.29c-.1,5.5,0,11,0,16.73h-8.58V430.32h8.38l.38,3.13c2.74-2.4,5.63-4.08,9.23-3.73s6.06,2.8,7.94,5.6c2.08-1.5,3.91-3.3,6.11-4.32,8.81-4.05,17.22,1.05,17.57,10.66.23,6.29.07,12.59.08,18.88A9.6,9.6,0,0,1,250.57,461.79Z"/><path d="M389.23,433.93c.15-1.4.26-2.49.38-3.71h8.11c.13.21.31.35.31.48,0,9.61.32,19.23-.06,28.82-.37,9.16-7.88,15.34-17.22,14.89a22.73,22.73,0,0,1-13-4.52l3.2-6.33c5.27,3.36,10.62,4.62,16.12,1.33,2.82-1.68,3.74-4.55,3.7-7.9-9.65,5.75-17,5.17-22.2-1.63-4.69-6.12-3.71-16.39,2.1-21.78C376.19,428.41,382.76,428.43,389.23,433.93Zm-14.81,11.29c0,5,3.07,8.53,7.51,8.59s7.69-3.51,7.63-8.45-3-8.22-7.48-8.21S374.43,440.43,374.42,445.22Z"/><path d="M360.64,449.06H338.26c.68,6.23,8.17,7.74,15.45,3.22l4.53,4.81a17.72,17.72,0,0,1-22.4,2.23c-6.37-4.46-8.5-13.89-4.78-21.15,3.6-7,12.3-10.27,20.26-7.57C358.68,433.09,362.37,440.25,360.64,449.06Zm-8.84-6.25c.38-4-3.45-6-6.5-5.94-4,.13-6.89,2.77-6.71,5.94Z"/><path d="M433.8,461.76H426c-.08-1.08-.15-2-.25-3.42-.77.63-1.31,1.1-1.88,1.54-4.05,3.13-8.4,3.16-12.79,1-4.09-2-5.89-5.49-5.59-10.07a8.08,8.08,0,0,1,6.14-7.6,39.41,39.41,0,0,1,7.45-1.12c2-.17,4,0,6,0-.12-3.84-1.45-5.55-4.83-5.26-3.21.28-6.35,1.36-10.08,2.21l-3.39-4.83c6.73-4.33,13.61-5.88,21-3.09a8.58,8.58,0,0,1,5.9,8C434,446.52,433.8,454,433.8,461.76Zm-8.65-13.69a64,64,0,0,0-8.4.7,3.74,3.74,0,0,0-2.23,2.86,4.15,4.15,0,0,0,2.14,3C421.1,456.63,425.33,453.54,425.15,448.07Z"/><path d="M273.27,429.72a16.18,16.18,0,0,1,17,15.88c.31,9.17-6.89,16.52-16.44,16.76a16.23,16.23,0,0,1-16.93-15.95C256.67,437,263.57,430,273.27,429.72Zm-7.69,16.41c.07,5.16,3.47,8.9,8,8.79s8.05-3.93,8-8.9c-.11-5.37-3.4-8.94-8.19-8.86S265.52,440.91,265.58,446.13Z"/><path d="M163.27,430.31h8.4l.3,2.5c2.54-1,5-2.45,7.62-2.86,6.49-1,12.27,3.28,12.71,9.83.48,7.21.11,14.47.11,21.91H184c0-5.24,0-10.46,0-15.68a29.89,29.89,0,0,0-.24-4.44c-.39-2.48-1.43-4.53-4.29-4.9a6.33,6.33,0,0,0-6.88,3.67,11.72,11.72,0,0,0-.71,4.08c-.07,5.68,0,11.36,0,17.26h-8.59Z"/><path d="M298.63,420.75h8.69v32.92h17.6v8H298.63Z"/><path d="M442.51,418.21h8.39v43.47h-8.39Z"/><path d="M144.83,420.74h8.57v41h-8.57Z"/></svg>